<svg width="1030" height="873" viewBox="0 0 1030 873" fill="none" xmlns="http://www.w3.org/2000/svg">
<path d="M100.5 218C90.1 79.5997 357.833 21.333 493 9.49967C645.167 -10.167 938.6 -12.4003 895 136C840.5 321.5 802 173 962.5 532C1123 891 986.5 765.5 647 847.5C307.5 929.5 390.5 804 291 532C191.5 260 113.5 391 100.5 218Z" fill="#D2D2D2" fill-opacity="0.29"/>
<g clip-path="url(#clip0)">
<path d="M1010.89 778.284C958.803 770.654 908.709 764.078 860.61 758.554L879.63 727.776C873.218 725.882 845.045 743.427 845.045 743.427L870.012 653.947C837.764 657.054 821.355 748.461 821.355 748.461L785.33 717.364L802.768 752.218C655.555 737.023 528.417 731.053 421.478 730.365L437.757 704.022C431.345 702.128 403.172 719.673 403.172 719.673L428.139 630.193C395.891 633.3 379.482 724.707 379.482 724.707L343.457 693.61L361.926 730.526C272.275 731.613 199.166 736.398 142.736 741.977C159.203 700.899 215.129 662.017 215.129 662.017C172.421 672.453 150.017 690.169 138.309 706.727C137.414 655.91 143.435 561.727 188.165 457.633C188.165 457.633 99.8691 618.041 111.117 726.041L112.461 745.215C37.625 753.84 0 762.999 0 762.999L1010.89 778.284Z" fill="#3F3D56"/>
<path d="M537.527 728.33V80.1295C537.528 76.3038 536.775 72.5153 535.311 68.9806C533.848 65.4458 531.702 62.2341 528.997 59.5289C526.292 56.8237 523.08 54.678 519.545 53.2145C516.011 51.751 512.222 50.9983 508.397 50.9995H466.426H284.626H245.246C241.421 50.9992 237.633 51.7524 234.099 53.2162C230.564 54.68 227.353 56.8257 224.648 59.5308C221.943 62.2358 219.797 65.4472 218.333 68.9816C216.869 72.5159 216.116 76.304 216.116 80.1295V728.33C216.112 732.155 216.863 735.944 218.326 739.479C219.789 743.014 221.935 746.225 224.641 748.93C227.347 751.634 230.56 753.777 234.096 755.238C237.632 756.698 241.421 757.446 245.246 757.44H508.397C516.118 757.437 523.523 754.37 528.985 748.912C534.447 743.454 537.519 736.051 537.527 728.33Z" fill="#3F3D56"/>
<path d="M289.427 166C293.293 166 296.427 162.866 296.427 159C296.427 155.134 293.293 152 289.427 152C285.561 152 282.427 155.134 282.427 159C282.427 162.866 285.561 166 289.427 166Z" fill="#F2F2F2"/>
<path d="M459.027 73.3796C458.286 74.0933 457.498 74.7549 456.667 75.3596C465.24 90.4464 476.854 103.587 490.774 113.949C504.693 124.31 520.614 131.666 537.527 135.55V132.43C521.071 128.548 505.599 121.296 492.087 111.132C478.576 100.969 467.319 88.1139 459.027 73.3796Z" fill="#6C63FF"/>
<path d="M399.217 80.0396H395.937C407.581 109.626 426.786 135.637 451.632 155.476C476.479 175.314 506.097 188.284 537.527 193.09V189.99C506.915 185.236 478.067 172.599 453.818 153.322C429.568 134.045 410.752 108.79 399.217 80.0396V80.0396Z" fill="#6C63FF"/>
<path d="M338.796 80.0396H335.636C362.066 171.78 441.816 240.07 537.526 251.16V248.11C443.476 237.07 365.096 170.08 338.796 80.0396Z" fill="#6C63FF"/>
<path d="M266.426 210.822H264.604V209H264.249V210.822H262.426V211.178H264.249V213H264.604V211.178H266.426V210.822Z" fill="#F2F2F2"/>
<path d="M389.426 119.822H387.604V118H387.249V119.822H385.426V120.178H387.249V122H387.604V120.178H389.426V119.822Z" fill="#F2F2F2"/>
<path d="M284.426 282.822H282.604V281H282.249V282.822H280.426V283.178H282.249V285H282.604V283.178H284.426V282.822Z" fill="#F2F2F2"/>
<path d="M368.426 229.822H366.604V228H366.249V229.822H364.426V230.178H366.249V232H366.604V230.178H368.426V229.822Z" fill="#F2F2F2"/>
<path d="M488.426 262.822H486.604V261H486.249V262.822H484.426V263.178H486.249V265H486.604V263.178H488.426V262.822Z" fill="#F2F2F2"/>
<path d="M467.427 180C469.636 180 471.427 178.209 471.427 176C471.427 173.79 469.636 172 467.427 172C465.217 172 463.427 173.79 463.427 176C463.427 178.209 465.217 180 467.427 180Z" fill="#FF6584"/>
<path d="M324.126 269.8L321.856 270.15C322.566 274.69 323.126 279.33 323.536 283.92L325.826 283.72C325.416 279.07 324.846 274.39 324.126 269.8Z" fill="#E6E6E6"/>
<path d="M317.916 242.459L315.716 243.13C317.046 247.53 318.236 252.04 319.246 256.53L321.496 256.02C320.466 251.48 319.256 246.919 317.916 242.459Z" fill="#E6E6E6"/>
<path d="M308.007 216.24L305.917 217.2C307.837 221.39 309.637 225.69 311.267 229.99L313.417 229.18C311.767 224.829 309.957 220.469 308.007 216.24Z" fill="#E6E6E6"/>
<path d="M294.607 191.659L292.667 192.889C295.137 196.769 297.507 200.789 299.707 204.819L301.727 203.719C299.507 199.64 297.107 195.579 294.607 191.659Z" fill="#E6E6E6"/>
<path d="M277.947 169.13L276.197 170.62C279.177 174.12 282.077 177.78 284.817 181.48L286.657 180.11C283.896 176.37 280.966 172.67 277.947 169.13Z" fill="#E6E6E6"/>
<path d="M258.366 149.07L256.836 150.78C260.276 153.85 263.646 157.08 266.856 160.37L268.506 158.76C265.256 155.43 261.846 152.17 258.366 149.07Z" fill="#E6E6E6"/>
<path d="M236.247 131.85L234.957 133.75C238.777 136.32 242.557 139.06 246.187 141.89L247.607 140.08C243.927 137.22 240.107 134.45 236.247 131.85Z" fill="#E6E6E6"/>
<path d="M216.116 119.89V122.49C218.506 123.74 220.876 125.05 223.196 126.39L224.346 124.4C221.646 122.84 218.903 121.336 216.116 119.89Z" fill="#E6E6E6"/>
<path d="M323.607 485.802C323.98 483.566 324.321 481.283 324.621 479.017L326.901 479.319C326.597 481.611 326.252 483.919 325.875 486.18L323.607 485.802Z" fill="#E6E6E6"/>
<path d="M317.198 512.782L319.395 513.466C320.774 509.022 322.022 504.47 323.103 499.935L320.863 499.405C319.792 503.891 318.566 508.387 317.198 512.782Z" fill="#E6E6E6"/>
<path d="M307.156 538.613L309.243 539.591C311.226 535.384 313.083 531.048 314.767 526.707L312.621 525.87C310.957 530.164 309.12 534.452 307.156 538.613Z" fill="#E6E6E6"/>
<path d="M293.645 562.847L295.573 564.099C298.116 560.199 300.556 556.156 302.827 552.089L300.822 550.964C298.58 554.987 296.16 558.983 293.645 562.847Z" fill="#E6E6E6"/>
<path d="M276.928 584.986L278.671 586.496C281.73 582.967 284.696 579.297 287.507 575.585L285.666 574.208C282.894 577.877 279.958 581.502 276.928 584.986Z" fill="#E6E6E6"/>
<path d="M257.353 604.631L258.868 606.359C262.384 603.292 265.822 600.055 269.108 596.767L267.481 595.138C264.233 598.393 260.824 601.585 257.353 604.631Z" fill="#E6E6E6"/>
<path d="M235.3 621.421L236.57 623.345C240.453 620.781 244.309 618.048 248.009 615.233L246.618 613.397C242.954 616.189 239.146 618.891 235.3 621.421Z" fill="#E6E6E6"/>
<path d="M224.606 630.649C221.826 632.219 218.986 633.739 216.116 635.179V632.599C218.596 631.339 221.056 630.009 223.466 628.659L224.606 630.649Z" fill="#E6E6E6"/>
<path d="M324.281 298.105L326.58 298.063C326.622 300.385 326.625 302.718 326.59 305L324.291 304.964C324.326 302.708 324.323 300.401 324.281 298.105Z" fill="#E6E6E6"/>
<path d="M226.217 352.631H461.427C478.931 352.631 495.718 359.585 508.096 371.962C520.473 384.34 527.427 401.127 527.427 418.631V427.368H292.216C274.712 427.368 257.925 420.414 245.547 408.037C233.17 395.659 226.217 378.872 226.217 361.368V352.631V352.631Z" fill="white"/>
<path d="M382.316 756.521C382.087 756.146 376.675 747.111 374.8 728.349C373.079 711.136 374.185 682.123 389.232 641.651C417.738 564.98 382.663 503.118 382.304 502.501L384.035 501.498C384.126 501.654 393.176 517.426 398.523 542.541C405.588 575.839 403.015 610.46 391.107 642.348C362.65 718.888 383.806 755.122 384.023 755.479L382.316 756.521Z" fill="#F2F2F2"/>
<path d="M371.17 498C378.349 498 384.17 492.179 384.17 485C384.17 477.82 378.349 472 371.17 472C363.99 472 358.17 477.82 358.17 485C358.17 492.179 363.99 498 371.17 498Z" fill="#6C63FF"/>
<path d="M412.17 546C419.349 546 425.17 540.179 425.17 533C425.17 525.82 419.349 520 412.17 520C404.99 520 399.17 525.82 399.17 533C399.17 540.179 404.99 546 412.17 546Z" fill="#F2F2F2"/>
<path d="M384.17 578C391.349 578 397.17 572.179 397.17 565C397.17 557.82 391.349 552 384.17 552C376.99 552 371.17 557.82 371.17 565C371.17 572.179 376.99 578 384.17 578Z" fill="#6C63FF"/>
<path d="M418.17 605C425.349 605 431.17 599.179 431.17 592C431.17 584.82 425.349 579 418.17 579C410.99 579 405.17 584.82 405.17 592C405.17 599.179 410.99 605 418.17 605Z" fill="#6C63FF"/>
<path d="M374.17 647C381.349 647 387.17 641.179 387.17 634C387.17 626.82 381.349 621 374.17 621C366.99 621 361.17 626.82 361.17 634C361.17 641.179 366.99 647 374.17 647Z" fill="#F2F2F2"/>
<path d="M390.17 757C390.17 757 377.17 725 416.17 701L390.17 757Z" fill="#F2F2F2"/>
<path d="M374.182 756.419C374.182 756.419 368.265 722.39 322.473 722.681L374.182 756.419Z" fill="#F2F2F2"/>
<path opacity="0.2" d="M322.427 470C366.609 470 402.427 434.182 402.427 390C402.427 345.817 366.609 310 322.427 310C278.244 310 242.427 345.817 242.427 390C242.427 434.182 278.244 470 322.427 470Z" fill="#6C63FF"/>
<path opacity="0.2" d="M322.426 446.337C353.541 446.337 378.764 421.114 378.764 389.999C378.764 358.885 353.541 333.661 322.426 333.661C291.312 333.661 266.088 358.885 266.088 389.999C266.088 421.114 291.312 446.337 322.426 446.337Z" fill="#6C63FF"/>
<path d="M322.427 427.183C342.962 427.183 359.61 410.535 359.61 390C359.61 369.464 342.962 352.816 322.427 352.816C301.891 352.816 285.243 369.464 285.243 390C285.243 410.535 301.891 427.183 322.427 427.183Z" fill="#6C63FF"/>
<path d="M329.187 381.98C329.187 380.839 328.899 379.716 328.349 378.717C327.798 377.717 327.004 376.874 326.04 376.264C325.075 375.654 323.972 375.298 322.834 375.23C321.695 375.161 320.557 375.382 319.526 375.871C318.496 376.36 317.606 377.103 316.939 378.029C316.273 378.955 315.852 380.035 315.715 381.167C315.578 382.3 315.73 383.449 316.157 384.507C316.584 385.565 317.271 386.498 318.156 387.219L315.666 404.647H329.187L326.697 387.219C327.476 386.586 328.103 385.787 328.534 384.88C328.965 383.974 329.188 382.983 329.187 381.98V381.98Z" fill="white"/>
<path d="M696.107 104.3C696.107 104.3 673.805 84.3047 643.813 121.987C613.821 159.67 566.91 178.127 556.143 192.738C556.143 192.738 600.747 174.282 616.128 166.591C631.509 158.901 630.74 160.439 630.74 160.439C630.74 160.439 609.976 175.051 606.13 189.662C602.285 204.274 605.361 216.578 598.44 231.19C591.519 245.802 730.714 241.188 730.714 241.188C730.714 241.188 744.557 217.348 740.711 192.738C736.866 168.129 739.173 107.376 696.107 104.3Z" fill="#2F2E41"/>
<path d="M653.925 167.202C653.925 167.202 658.774 201.148 637.99 208.769C617.207 216.39 624.827 226.782 624.827 226.782L656.003 242.023L689.257 231.631L700.342 215.004C700.342 215.004 682.329 210.847 687.179 198.377C692.028 185.907 693.414 181.75 693.414 181.75L653.925 167.202Z" fill="#FFB9B9"/>
<path opacity="0.1" d="M653.925 167.202C653.925 167.202 658.774 201.148 637.99 208.769C617.207 216.39 624.827 226.782 624.827 226.782L656.003 242.023L689.257 231.631L700.342 215.004C700.342 215.004 682.329 210.847 687.179 198.377C692.028 185.907 693.414 181.75 693.414 181.75L653.925 167.202Z" fill="black"/>
<path d="M741.216 264.192C741.216 264.192 736.367 327.929 737.752 330.7C739.138 333.471 737.752 429.769 737.752 429.769C737.752 429.769 747.451 481.729 734.981 484.5C722.511 487.271 725.282 426.305 725.282 426.305L712.812 345.942L714.198 266.271L741.216 264.192Z" fill="#FFB9B9"/>
<path opacity="0.1" d="M741.216 264.192C741.216 264.192 736.367 327.929 737.752 330.7C739.138 333.471 737.752 429.769 737.752 429.769C737.752 429.769 747.451 481.729 734.981 484.5C722.511 487.271 725.282 426.305 725.282 426.305L712.812 345.942L714.198 266.271L741.216 264.192Z" fill="black"/>
<path d="M606.122 456.095C606.122 456.095 583.26 542.694 583.953 584.955C584.645 627.215 593.652 686.102 593.652 686.102C593.652 686.102 595.037 711.735 592.959 714.507C590.881 717.278 603.351 729.055 603.351 729.055L616.514 721.434L621.363 715.892V711.043C621.363 711.043 613.743 687.488 619.978 668.782C626.213 650.077 629.677 602.967 623.442 588.419L666.395 460.945L606.122 456.095Z" fill="#FFB9B9"/>
<path d="M604.736 717.971C604.736 717.971 596.423 707.579 590.881 711.043C585.338 714.507 576.332 738.062 576.332 738.062C576.332 738.062 545.156 767.852 567.326 769.237C589.495 770.623 599.194 763.002 601.965 757.46C604.736 751.917 630.37 737.369 630.37 737.369C630.37 737.369 627.599 711.043 623.442 710.35C619.285 709.657 613.05 720.742 613.05 720.742L604.736 717.971Z" fill="#2F2E41"/>
<path d="M681.636 461.638V547.544C681.717 557.967 682.411 568.377 683.715 578.719C685.793 593.961 671.937 707.579 671.937 707.579L673.323 727.669L690.643 726.284L692.721 708.964L717.661 632.757C717.661 632.757 725.975 586.34 721.818 569.02C717.661 551.701 743.295 440.854 743.295 440.854L681.636 461.638Z" fill="#FFB9B9"/>
<path d="M667.78 722.82L672.911 721.704C672.911 721.704 676.787 713.121 681.636 715.199C685.049 716.773 688.282 718.71 691.279 720.977L693.414 724.898C693.414 724.898 698.263 735.29 704.498 742.218C710.733 749.146 717.661 764.387 707.27 765.773C696.878 767.159 683.022 767.851 678.865 764.387C674.708 760.923 677.48 755.381 673.323 753.996C669.166 752.61 665.702 748.453 666.395 747.068C667.088 745.682 667.78 722.82 667.78 722.82Z" fill="#2F2E41"/>
<path d="M681.636 191.064C698.641 191.064 712.427 177.279 712.427 160.274C712.427 143.269 698.641 129.483 681.636 129.483C664.631 129.483 650.846 143.269 650.846 160.274C650.846 177.279 664.631 191.064 681.636 191.064Z" fill="#FFB9B9"/>
<path d="M623.442 214.311L632.593 211.116C632.593 211.116 628.984 217.082 648.382 220.546C667.781 224.01 687.87 225.237 696.877 213.885C696.877 213.885 700.342 212.233 705.191 217.083C710.041 221.932 712.812 220.547 712.812 220.547L709.348 238.559L702.42 271.813L693.414 296.753L667.781 291.211L640.069 271.12L629.677 244.101V219.161L623.442 214.311Z" fill="#6C63FF"/>
<path d="M707.962 224.01L714.89 219.161C714.89 219.161 738.445 223.318 739.831 234.402L721.818 269.042C725.492 278.68 725.243 289.374 721.125 298.832C714.197 314.766 714.89 318.23 714.89 318.23L710.041 339.014L622.056 345.942C622.056 345.942 618.592 337.628 617.207 336.243C615.821 334.857 615.821 330.007 617.207 330.007C618.592 330.007 617.207 327.929 615.821 325.851C614.436 323.772 613.743 323.079 615.821 320.308C617.9 317.537 612.357 292.597 612.357 292.597V265.578L588.802 234.402C588.802 234.402 597.116 221.932 601.273 220.546C605.429 219.161 625.203 213.697 625.203 213.697L629.677 220.285L635.912 270.427L644.918 300.91L682.839 294.467L697.57 269.735L707.27 240.637L707.962 224.01Z" fill="#6C63FF"/>
<path d="M734.288 230.246L739.831 234.402C739.831 234.402 744.68 273.199 743.295 275.97C741.909 278.741 717.661 281.512 716.969 280.127C716.276 278.741 734.288 230.246 734.288 230.246Z" fill="#6C63FF"/>
<path d="M619.978 210.847L626.906 256.572C626.906 256.572 620.671 324.465 622.056 338.321L623.442 342.478C623.442 342.478 620.671 341.092 619.978 343.863C619.285 346.634 619.978 355.641 619.978 355.641C619.978 355.641 615.821 359.797 614.435 382.66C613.05 405.522 596.423 460.252 602.658 462.331C608.893 464.409 646.304 474.801 666.395 472.722C686.486 470.644 758.536 446.396 757.843 440.161C757.15 433.926 722.511 345.942 722.511 345.942C722.511 345.942 716.276 335.55 716.276 334.164C716.276 332.779 724.589 327.236 722.511 321.694C720.433 316.152 709.348 257.957 709.348 257.957L716.969 216.39L706.577 213.618L698.956 253.8C698.956 253.8 669.166 268.349 637.99 255.186L631.063 208.076L619.978 210.847Z" fill="#2F2E41"/>
<path d="M653.31 138.177C653.31 138.177 704.577 173.509 718.433 157.575C732.288 141.641 694.185 127.785 694.185 127.785L662.317 124.321L653.31 138.177Z" fill="#2F2E41"/>
<path d="M573.655 514.041C578.932 517.969 585.46 519.838 592.016 519.297C598.572 518.756 604.706 515.843 609.267 511.103C613.829 506.363 616.505 500.123 616.795 493.551C617.084 486.979 614.967 480.527 610.84 475.405C606.713 470.282 600.859 466.84 594.376 465.725C587.893 464.61 581.226 465.897 575.624 469.346C570.022 472.795 565.871 478.168 563.947 484.459C562.024 490.75 562.461 497.526 565.176 503.518L494.47 562.39L485.055 551.216L480.825 554.045L476.118 548.458L479.986 545.199L475.278 539.613L469.262 544.682L472.159 548.12L465.712 553.551L462.816 550.114L453.361 558.08L457.706 563.237L461.144 560.34L465.852 565.927L461.554 569.548L470.244 579.862L459.93 588.552L470.431 601.015L573.655 514.041ZM591.309 474.549C594.833 474.85 598.188 476.19 600.951 478.398C603.714 480.606 605.759 483.583 606.83 486.954C607.9 490.325 607.947 493.937 606.964 497.335C605.981 500.732 604.013 503.762 601.309 506.04C598.604 508.319 595.284 509.745 591.77 510.137C588.255 510.529 584.703 509.87 581.562 508.244C578.422 506.617 575.835 504.096 574.127 500.998C572.42 497.901 571.669 494.367 571.97 490.844C572.374 486.118 574.638 481.747 578.265 478.691C581.892 475.635 586.584 474.145 591.309 474.549V474.549Z" fill="#6C63FF"/>
<path d="M583.953 272.506C583.953 272.506 588.802 336.243 587.417 339.014C586.031 341.785 587.417 438.083 587.417 438.083C587.417 438.083 577.718 490.042 590.188 492.813C602.658 495.585 599.887 434.619 599.887 434.619L612.357 354.255L610.972 274.584L583.953 272.506Z" fill="#FFB9B9"/>
<path d="M594.345 232.324L588.802 234.402C588.802 234.402 578.41 278.048 581.182 278.048C583.953 278.048 617.207 282.205 617.207 280.819C617.207 279.434 610.972 245.487 610.972 245.487L594.345 232.324Z" fill="#6C63FF"/>
</g>
<defs>
<clipPath id="clip0">
<rect width="1010.89" height="727.284" fill="white" transform="translate(0 50.9995)"/>
</clipPath>
</defs>
</svg>
